name D:\school\WTK\thesis\model\3dpredictsim\Results\batch_tmt_lin\Pog_s1_tmt_bCst_d05_k100_ig24.mot
datacolumns 128
datarows 4
range 0.54784949 0.58072046
endheader
time	pelvis_tilt	pelvis_list	pelvis_rotation	pelvis_tx	pelvis_ty	pelvis_tz	hip_flexion_l	hip_adduction_l	hip_rotation_l	hip_flexion_r	hip_adduction_r	hip_rotation_r	knee_angle_l	knee_angle_r	ankle_angle_l	ankle_angle_r	subtalar_angle_l	subtalar_angle_r	tmt_angle_l	tmt_angle_r	mtp_angle_l	mtp_angle_r	lumbar_extension	lumbar_bending	lumbar_rotation	arm_flex_l	arm_add_l	arm_rot_l	arm_flex_r	arm_add_r	arm_rot_r	elbow_flex_l	elbow_flex_r	pro_sup_l	pro_sup_r	glut_med1_l/activation	glut_med2_l/activation	glut_med3_l/activation	glut_min1_l/activation	glut_min2_l/activation	glut_min3_l/activation	semimem_l/activation	semiten_l/activation	bifemlh_l/activation	bifemsh_l/activation	sar_l/activation	add_long_l/activation	add_brev_l/activation	add_mag1_l/activation	add_mag2_l/activation	add_mag3_l/activation	tfl_l/activation	pect_l/activation	grac_l/activation	glut_max1_l/activation	glut_max2_l/activation	glut_max3_l/activation	iliacus_l/activation	psoas_l/activation	quad_fem_l/activation	gem_l/activation	peri_l/activation	rect_fem_l/activation	vas_med_l/activation	vas_int_l/activation	vas_lat_l/activation	med_gas_l/activation	lat_gas_l/activation	soleus_l/activation	tib_post_l/activation	flex_dig_l/activation	flex_hal_l/activation	tib_ant_l/activation	per_brev_l/activation	per_long_l/activation	per_tert_l/activation	ext_dig_l/activation	ext_hal_l/activation	ercspn_l/activation	intobl_l/activation	extobl_l/activation	glut_med1_r/activation	glut_med2_r/activation	glut_med3_r/activation	glut_min1_r/activation	glut_min2_r/activation	glut_min3_r/activation	semimem_r/activation	semiten_r/activation	bifemlh_r/activation	bifemsh_r/activation	sar_r/activation	add_long_r/activation	add_brev_r/activation	add_mag1_r/activation	add_mag2_r/activation	add_mag3_r/activation	tfl_r/activation	pect_r/activation	grac_r/activation	glut_max1_r/activation	glut_max2_r/activation	glut_max3_r/activation	iliacus_r/activation	psoas_r/activation	quad_fem_r/activation	gem_r/activation	peri_r/activation	rect_fem_r/activation	vas_med_r/activation	vas_int_r/activation	vas_lat_r/activation	med_gas_r/activation	lat_gas_r/activation	soleus_r/activation	tib_post_r/activation	flex_dig_r/activation	flex_hal_r/activation	tib_ant_r/activation	per_brev_r/activation	per_long_r/activation	per_tert_r/activation	ext_dig_r/activation	ext_hal_r/activation	ercspn_r/activation	intobl_r/activation	extobl_r/activation	
          0.54784949	         -2.91694236	          2.37366722	         -5.71906085	          0.68481187	          0.86424826	          0.00033410	         30.78428707	          3.45479929	         -1.80466388	        -12.46629482	         -1.41990653	          4.87200125	        -16.22372145	        -19.21197586	          7.44058985	        -11.41334039	          7.18652174	         20.61565132	          0.37853420	         13.47667716	         -0.06033222	         20.91099050	         -1.41097920	         -1.21894011	          2.20862793	         -7.06575494	        -13.48388935	          4.79805487	          6.14659435	        -13.45561707	         17.98534883	         16.13143591	         34.04006780	         86.51662706	         86.51662706	          0.05913084	          0.05913083	          0.05000019	          0.05913091	          0.05913089	          0.05913076	          0.22578221	          0.10144089	          0.33785450	          0.07434784	          0.05000039	          0.19184790	          0.31223305	          0.05869642	          0.21405423	          0.16052339	          0.05000092	          0.05233966	          0.15898072	          0.05000069	          0.13692233	          0.25131965	          0.08027529	          0.05001442	          0.14428185	          0.45101395	          0.21571195	          0.05000121	          0.05226887	          0.06992162	          0.06992655	          0.06691041	          0.06774932	          0.06201027	          0.10132080	          0.05000358	          0.05000565	          0.47870961	          0.16424545	          0.14470882	          0.27813631	          0.46784993	          0.28707770	          0.05000005	          0.09588147	          0.11566131	          0.10690439	          0.09780221	          0.09836746	          0.15290565	          0.15403469	          0.13061995	          0.05001124	          0.05000096	          0.05000066	          0.05202531	          0.10600942	          0.08951187	          0.06990507	          0.05001102	          0.05000996	          0.05000141	          0.29573893	          0.05926140	          0.05011330	          0.05000517	          0.05000292	          0.05000251	          0.44882281	          0.67508581	          0.05000168	          0.05000513	          0.10195202	          0.54769989	          0.19881602	          0.20239896	          0.17710655	          0.35775120	          0.51679079	          0.23094516	          0.38215737	          0.35022098	          0.41571469	          0.05000013	          0.33341795	          0.31552495	          0.05000301	          0.05000054	          0.05000097	          0.05000002	          0.05159447	          0.08717279	
          0.55880648	         -2.92525522	          2.53869896	         -5.98560944	          0.70114738	          0.86172355	          0.00004375	         30.45300843	          3.96097658	         -1.64300538	        -13.12649340	         -1.79429735	          4.82699300	        -17.16924903	        -19.62521417	          6.97405626	        -12.27448892	          7.05430878	         20.52901044	          0.26136880	         12.49039509	         -0.05619722	         22.40763540	         -1.25168112	         -1.43987028	          2.29187065	         -7.75970029	        -13.48338329	          4.74235382	          5.99634354	        -13.47222000	         18.27223389	         15.66608772	         34.60589775	         86.51662706	         86.51662706	          0.05000003	          0.05000008	          0.11133505	          0.05000011	          0.05000012	          0.05000014	          0.19091759	          0.08577676	          0.28568396	          0.06286744	          0.08270979	          0.16222418	          0.32656677	          0.41861639	          0.24540003	          0.15138360	          0.05000038	          0.08283091	          0.18082244	          0.05398728	          0.19076755	          0.24996843	          0.06992805	          0.06994597	          0.50549838	          0.38136970	          0.18240244	          0.05913105	          0.05913042	          0.05913043	          0.05913047	          0.06992919	          0.06992967	          0.06633851	          0.08567853	          0.05914559	          0.05913400	          0.45743747	          0.14137019	          0.17334531	          0.23518752	          0.40581076	          0.24274817	          0.05000004	          0.08107572	          0.09780121	          0.09039661	          0.08270028	          0.08317817	          0.12929460	          0.13024957	          0.11045038	          0.05000639	          0.05000109	          0.05000385	          0.05000022	          0.08964056	          0.19353815	          0.05911387	          0.05915334	          0.05913362	          0.05913049	          0.25007217	          0.05011225	          0.05932652	          0.05916828	          0.05914676	          0.05915281	          0.37951705	          0.65101883	          0.10694278	          0.08270274	          0.08620904	          0.46312559	          0.22443925	          0.22020979	          0.19133363	          0.31026647	          0.44468731	          0.20454385	          0.32314735	          0.29614124	          0.35152184	          0.05000005	          0.28420651	          0.31121634	          0.05000013	          0.05000006	          0.05000029	          0.05116692	          0.07966771	          0.07371201	
          0.56976347	         -2.92911115	          2.71123764	         -6.22991789	          0.71780859	          0.85912704	         -0.00019649	         29.97103032	          4.36741932	         -1.40744941	        -13.72192862	         -2.16738055	          4.76422456	        -18.21817480	        -20.15518338	          6.65104917	        -13.12609702	          6.89557964	         20.41542130	         -0.19465758	         11.23590300	         -0.12380206	         23.89993576	         -1.06906987	         -1.67535350	          2.36268212	         -8.48072259	        -13.49538868	          4.73750025	          5.75082196	        -13.48845235	         18.46295702	         15.23153695	         35.18861216	         86.51662706	         86.51662706	          0.29928092	          0.24514806	          0.16345996	          0.37606054	          0.18558089	          0.07974212	          0.16143666	          0.10492787	          0.24156944	          0.08271648	          0.06993814	          0.13717412	          0.27613938	          0.35397500	          0.20750723	          0.19635459	          0.05000078	          0.07004223	          0.15290551	          0.14785224	          0.23830710	          0.25003822	          0.05913058	          0.05914519	          0.42744077	          0.32247975	          0.16857588	          0.05000025	          0.05000014	          0.05000012	          0.05000010	          0.05913096	          0.05913141	          0.05609475	          0.08478275	          0.05001283	          0.05000311	          0.51578271	          0.19305637	          0.14657791	          0.52395975	          0.49294016	          0.30565744	          0.05000015	          0.11555900	          0.08269902	          0.23763888	          0.06993005	          0.07033406	          0.26708127	          0.11014116	          0.09339515	          0.05000582	          0.05000051	          0.05000045	          0.05912874	          0.09538763	          0.16365272	          0.05000307	          0.05001941	          0.05000357	          0.05000062	          0.21145764	          0.07035195	          0.05016702	          0.05003319	          0.05001435	          0.05001895	          0.33301908	          0.64566131	          0.09042900	          0.06993218	          0.07289695	          0.39161100	          0.18978207	          0.18620572	          0.16178850	          0.26235600	          0.37602000	          0.17295875	          0.27324790	          0.25041205	          0.29724095	          0.05000013	          0.32679186	          0.30428811	          0.05000399	          0.05000504	          0.05000089	          0.06650010	          0.06736564	          0.06232964	
          0.58072046	         -2.93017638	          2.87994320	         -6.44066248	          0.73459864	          0.85654101	         -0.00044888	         29.44795948	          4.73404218	         -1.18851564	        -14.20804456	         -2.52916612	          4.70028993	        -19.21667787	        -20.85657011	          6.34046219	        -13.97891219	          6.71583854	         20.30394079	         -0.25026766	          9.78003563	         -0.17973606	         25.24104708	         -0.88415517	         -1.90990258	          2.42101736	         -9.17964418	        -13.51009948	          4.79556473	          5.43961197	        -13.51494150	         18.57907736	         14.80406402	         35.77090931	         86.51662706	         86.51662706	          0.43098700	          0.42021763	          0.38894865	          0.37194831	          0.24623455	          0.26990041	          0.13650807	          0.08872634	          0.20426695	          0.06994374	          0.05913861	          0.11599221	          0.23349894	          0.29931567	          0.23748772	          0.22097938	          0.05000087	          0.05922817	          0.12929686	          0.26446774	          0.28386023	          0.26419902	          0.05000053	          0.05001225	          0.36143661	          0.27268340	          0.14254560	          0.05000016	          0.05000195	          0.14045935	          0.14787767	          0.05000020	          0.05000062	          0.05000004	          0.17159121	          0.05000151	          0.05000123	          0.60931476	          0.16324518	          0.12394378	          0.44305189	          0.48282371	          0.38518590	          0.07324304	          0.09771471	          0.06992888	          0.20096328	          0.05913177	          0.05947331	          0.22583996	          0.09313406	          0.07897350	          0.05000270	          0.05000026	          0.05000032	          0.05000017	          0.08065853	          0.13838238	          0.05000113	          0.05000199	          0.05000494	          0.05003333	          0.17880517	          0.05948938	          0.05000074	          0.05001460	          0.05000854	          0.05000333	          0.28159529	          0.60964954	          0.07646525	          0.05913365	          0.06164047	          0.33113948	          0.16047654	          0.15745243	          0.13680562	          0.22184373	          0.31795613	          0.14625093	          0.23105385	          0.21174431	          0.25134203	          0.05000092	          0.27633002	          0.26118899	          0.05921830	          0.12586647	          0.05007462	          0.08875404	          0.05696324	          0.05270490	
